<svg xmlns="http://www.w3.org/2000/svg" xmlns:xlink="http://www.w3.org/1999/xlink" contentStyleType="text/css" data-diagram-type="ACTIVITY" height="833px" preserveAspectRatio="none" style="width:548px;height:833px;background:#FFFFFF;" version="1.1" viewBox="0 0 548 833" width="548px" zoomAndPan="magnify"><defs/><g><ellipse cx="288.4653" cy="15" fill="#FFFFFF" rx="10" ry="10" style="stroke:#000000;stroke-width:1;"/><rect fill="#FFFFFF" height="33.9688" rx="12.5" ry="12.5" style="stroke:#000000;stroke-width:1;" width="99.8633" x="238.5337" y="45"/><text fill="#000000" font-family="Verdana" font-size="12" lengthAdjust="spacing" textLength="79.8633" x="248.5337" y="66.1387">Initialize ADC</text><rect fill="#FFFFFF" height="33.9688" rx="12.5" ry="12.5" style="stroke:#000000;stroke-width:1;" width="184.4199" x="196.2554" y="98.9688"/><text fill="#000000" font-family="Verdana" font-size="12" lengthAdjust="spacing" textLength="164.4199" x="206.2554" y="120.1074">Initialize UART (9600 baud)</text><rect fill="#FFFFFF" height="33.9688" rx="12.5" ry="12.5" style="stroke:#000000;stroke-width:1;" width="186.5234" x="195.2036" y="152.9375"/><text fill="#000000" font-family="Verdana" font-size="12" lengthAdjust="spacing" textLength="166.5234" x="205.2036" y="174.0762">Create LED object (Pin PB5)</text><rect fill="#FFFFFF" height="33.9688" rx="12.5" ry="12.5" style="stroke:#000000;stroke-width:1;" width="93.5586" x="241.686" y="206.9063"/><text fill="#000000" font-family="Verdana" font-size="12" lengthAdjust="spacing" textLength="73.5586" x="251.686" y="228.0449">Turn on LED</text><rect fill="#FFFFFF" height="33.9688" rx="12.5" ry="12.5" style="stroke:#000000;stroke-width:1;" width="207.043" x="184.9438" y="260.875"/><text fill="#000000" font-family="Verdana" font-size="12" lengthAdjust="spacing" textLength="187.043" x="194.9438" y="282.0137">Set initial LED brightness (128)</text><rect fill="#FFFFFF" height="33.9688" rx="12.5" ry="12.5" style="stroke:#000000;stroke-width:1;" width="211.6777" x="182.6265" y="375.6484"/><text fill="#000000" font-family="Verdana" font-size="12" lengthAdjust="spacing" textLength="191.6777" x="192.6265" y="396.7871">Read ADC value from channel 0</text><rect fill="#FFFFFF" height="33.9688" rx="12.5" ry="12.5" style="stroke:#000000;stroke-width:1;" width="198.1953" x="189.3677" y="429.6172"/><text fill="#000000" font-family="Verdana" font-size="12" lengthAdjust="spacing" textLength="178.1953" x="199.3677" y="450.7559">Convert ADC value to voltage</text><rect fill="#FFFFFF" height="33.9688" rx="12.5" ry="12.5" style="stroke:#000000;stroke-width:1;" width="149.8379" x="213.5464" y="483.5859"/><text fill="#000000" font-family="Verdana" font-size="12" lengthAdjust="spacing" textLength="129.8379" x="223.5464" y="504.7246">Format voltage string</text><rect fill="#FFFFFF" height="33.9688" rx="12.5" ry="12.5" style="stroke:#000000;stroke-width:1;" width="156.9512" x="209.9897" y="537.5547"/><text fill="#000000" font-family="Verdana" font-size="12" lengthAdjust="spacing" textLength="136.9512" x="219.9897" y="558.6934">Send voltage via UART</text><rect fill="#FFFFFF" height="33.9688" rx="12.5" ry="12.5" style="stroke:#000000;stroke-width:1;" width="158.8086" x="209.061" y="598.1367"/><text fill="#000000" font-family="Verdana" font-size="12" lengthAdjust="spacing" textLength="138.8086" x="219.061" y="619.2754">Add new line character</text><polygon fill="#FFFFFF" points="244.3821,652.1055,332.5486,652.1055,344.5486,664.1055,332.5486,676.1055,244.3821,676.1055,232.3821,664.1055,244.3821,652.1055" style="stroke:#000000;stroke-width:1;"/><text fill="#000000" font-family="Verdana" font-size="11" lengthAdjust="spacing" textLength="88.1665" x="244.3821" y="667.9136">voltage &gt; 2.5V?</text><text fill="#000000" font-family="Verdana" font-size="11" lengthAdjust="spacing" textLength="19.0083" x="213.3738" y="661.5112">yes</text><text fill="#000000" font-family="Verdana" font-size="11" lengthAdjust="spacing" textLength="13.7017" x="344.5486" y="661.5112">no</text><rect fill="#FFFFFF" height="33.9688" rx="12.5" ry="12.5" style="stroke:#000000;stroke-width:1;" width="250.3672" x="40" y="686.1055"/><text fill="#000000" font-family="Verdana" font-size="12" lengthAdjust="spacing" textLength="230.3672" x="50" y="707.2441">Set LED brightness to maximum (255)</text><rect fill="#FFFFFF" height="33.9688" rx="12.5" ry="12.5" style="stroke:#000000;stroke-width:1;" width="202.7598" x="310.3672" y="686.1055"/><text fill="#000000" font-family="Verdana" font-size="12" lengthAdjust="spacing" textLength="182.7598" x="320.3672" y="707.2441">Set LED brightness to low (50)</text><polygon fill="#FFFFFF" points="288.4653,726.0742,300.4653,738.0742,288.4653,750.0742,276.4653,738.0742,288.4653,726.0742" style="stroke:#000000;stroke-width:1;"/><rect fill="#FFFFFF" height="33.9688" rx="12.5" ry="12.5" style="stroke:#000000;stroke-width:1;" width="99.0723" x="238.9292" y="770.0742"/><text fill="#000000" font-family="Verdana" font-size="12" lengthAdjust="spacing" textLength="79.0723" x="248.9292" y="791.2129">Delay 500ms</text><polygon fill="#FFFFFF" points="262.762,314.8438,314.1687,314.8438,326.1687,326.8438,314.1687,338.8438,262.762,338.8438,250.762,326.8438,262.762,314.8438" style="stroke:#000000;stroke-width:1;"/><text fill="#000000" font-family="Verdana" font-size="11" lengthAdjust="spacing" textLength="19.0083" x="292.4653" y="349.0542">yes</text><text fill="#000000" font-family="Verdana" font-size="11" lengthAdjust="spacing" textLength="51.4067" x="262.762" y="330.6519">Running?</text><ellipse cx="19" cy="373.8438" fill="none" rx="11" ry="11" style="stroke:#000000;stroke-width:1;"/><ellipse cx="19" cy="373.8438" fill="#FFFFFF" rx="6" ry="6" style="stroke:#000000;stroke-width:1;"/><line style="stroke:#000000;stroke-width:1;" x1="288.4653" x2="288.4653" y1="25" y2="45"/><polygon fill="#000000" points="284.4653,35,288.4653,45,292.4653,35,288.4653,39" style="stroke:#000000;stroke-width:1;"/><line style="stroke:#000000;stroke-width:1;" x1="288.4653" x2="288.4653" y1="78.9688" y2="98.9688"/><polygon fill="#000000" points="284.4653,88.9688,288.4653,98.9688,292.4653,88.9688,288.4653,92.9688" style="stroke:#000000;stroke-width:1;"/><line style="stroke:#000000;stroke-width:1;" x1="288.4653" x2="288.4653" y1="132.9375" y2="152.9375"/><polygon fill="#000000" points="284.4653,142.9375,288.4653,152.9375,292.4653,142.9375,288.4653,146.9375" style="stroke:#000000;stroke-width:1;"/><line style="stroke:#000000;stroke-width:1;" x1="288.4653" x2="288.4653" y1="186.9063" y2="206.9063"/><polygon fill="#000000" points="284.4653,196.9063,288.4653,206.9063,292.4653,196.9063,288.4653,200.9063" style="stroke:#000000;stroke-width:1;"/><line style="stroke:#000000;stroke-width:1;" x1="288.4653" x2="288.4653" y1="240.875" y2="260.875"/><polygon fill="#000000" points="284.4653,250.875,288.4653,260.875,292.4653,250.875,288.4653,254.875" style="stroke:#000000;stroke-width:1;"/><line style="stroke:#000000;stroke-width:1;" x1="288.4653" x2="288.4653" y1="409.6172" y2="429.6172"/><polygon fill="#000000" points="284.4653,419.6172,288.4653,429.6172,292.4653,419.6172,288.4653,423.6172" style="stroke:#000000;stroke-width:1;"/><line style="stroke:#000000;stroke-width:1;" x1="288.4653" x2="288.4653" y1="463.5859" y2="483.5859"/><polygon fill="#000000" points="284.4653,473.5859,288.4653,483.5859,292.4653,473.5859,288.4653,477.5859" style="stroke:#000000;stroke-width:1;"/><line style="stroke:#000000;stroke-width:1;" x1="288.4653" x2="288.4653" y1="517.5547" y2="537.5547"/><polygon fill="#000000" points="284.4653,527.5547,288.4653,537.5547,292.4653,527.5547,288.4653,531.5547" style="stroke:#000000;stroke-width:1;"/><line style="stroke:#000000;stroke-width:1;" x1="288.4653" x2="288.4653" y1="571.5234" y2="598.1367"/><polygon fill="#000000" points="284.4653,588.1367,288.4653,598.1367,292.4653,588.1367,288.4653,592.1367" style="stroke:#000000;stroke-width:1;"/><line style="stroke:#000000;stroke-width:1;" x1="232.3821" x2="165.1836" y1="664.1055" y2="664.1055"/><line style="stroke:#000000;stroke-width:1;" x1="165.1836" x2="165.1836" y1="664.1055" y2="686.1055"/><polygon fill="#000000" points="161.1836,676.1055,165.1836,686.1055,169.1836,676.1055,165.1836,680.1055" style="stroke:#000000;stroke-width:1;"/><line style="stroke:#000000;stroke-width:1;" x1="344.5486" x2="411.7471" y1="664.1055" y2="664.1055"/><line style="stroke:#000000;stroke-width:1;" x1="411.7471" x2="411.7471" y1="664.1055" y2="686.1055"/><polygon fill="#000000" points="407.7471,676.1055,411.7471,686.1055,415.7471,676.1055,411.7471,680.1055" style="stroke:#000000;stroke-width:1;"/><line style="stroke:#000000;stroke-width:1;" x1="165.1836" x2="165.1836" y1="720.0742" y2="738.0742"/><line style="stroke:#000000;stroke-width:1;" x1="165.1836" x2="276.4653" y1="738.0742" y2="738.0742"/><polygon fill="#000000" points="266.4653,734.0742,276.4653,738.0742,266.4653,742.0742,270.4653,738.0742" style="stroke:#000000;stroke-width:1;"/><line style="stroke:#000000;stroke-width:1;" x1="411.7471" x2="411.7471" y1="720.0742" y2="738.0742"/><line style="stroke:#000000;stroke-width:1;" x1="411.7471" x2="300.4653" y1="738.0742" y2="738.0742"/><polygon fill="#000000" points="310.4653,734.0742,300.4653,738.0742,310.4653,742.0742,306.4653,738.0742" style="stroke:#000000;stroke-width:1;"/><line style="stroke:#000000;stroke-width:1;" x1="288.4653" x2="288.4653" y1="632.1055" y2="652.1055"/><polygon fill="#000000" points="284.4653,642.1055,288.4653,652.1055,292.4653,642.1055,288.4653,646.1055" style="stroke:#000000;stroke-width:1;"/><line style="stroke:#000000;stroke-width:1;" x1="288.4653" x2="288.4653" y1="750.0742" y2="770.0742"/><polygon fill="#000000" points="284.4653,760.0742,288.4653,770.0742,292.4653,760.0742,288.4653,764.0742" style="stroke:#000000;stroke-width:1;"/><line style="stroke:#000000;stroke-width:1;" x1="288.4653" x2="288.4653" y1="338.8438" y2="375.6484"/><polygon fill="#000000" points="284.4653,365.6484,288.4653,375.6484,292.4653,365.6484,288.4653,369.6484" style="stroke:#000000;stroke-width:1;"/><line style="stroke:#000000;stroke-width:1;" x1="288.4653" x2="288.4653" y1="804.043" y2="814.043"/><line style="stroke:#000000;stroke-width:1;" x1="288.4653" x2="527.127" y1="814.043" y2="814.043"/><polygon fill="#000000" points="523.127,578.1367,527.127,568.1367,531.127,578.1367,527.127,574.1367" style="stroke:#000000;stroke-width:1;"/><line style="stroke:#000000;stroke-width:1;" x1="527.127" x2="527.127" y1="326.8438" y2="814.043"/><line style="stroke:#000000;stroke-width:1;" x1="527.127" x2="326.1687" y1="326.8438" y2="326.8438"/><polygon fill="#000000" points="336.1687,322.8438,326.1687,326.8438,336.1687,330.8438,332.1687,326.8438" style="stroke:#000000;stroke-width:1;"/><line style="stroke:#000000;stroke-width:1;" x1="250.762" x2="19" y1="326.8438" y2="326.8438"/><line style="stroke:#000000;stroke-width:1;" x1="19" x2="19" y1="326.8438" y2="362.8438"/><polygon fill="#000000" points="15,352.8438,19,362.8438,23,352.8438,19,356.8438" style="stroke:#000000;stroke-width:1;"/><line style="stroke:#000000;stroke-width:1;" x1="288.4653" x2="288.4653" y1="294.8438" y2="314.8438"/><polygon fill="#000000" points="284.4653,304.8438,288.4653,314.8438,292.4653,304.8438,288.4653,308.8438" style="stroke:#000000;stroke-width:1;"/><!--SRC=[XL71JiCm3BtdAyojkw0ogGWs2JGwa90uJ1jmprglDKkSAN4xnjUJhXigNCWjVk_PViyNKgD5s1bDhCAMUAUzjh3MnRRohk4oTyPvsDSag5GGxKMfoJEJa3RqXJ2RvzDVXRVPyXMIs-iqZLsQSXJHtACMX9V7ERZr1nO2oO8O5WzPXxusdi5n1yVV2WMextOKh3rLjJ260CdL-2OAL5p682JBXfcukXy1HUo0OQGWliaITTcj1Qqs3SB6Emj5hPdHG3hjERdZ5hqCQEAWTKPqXIVAa_DMoxa8GNmSrcCzOOLS_i0jwQFpatXMbi2u1qECtN2l2q4_KDC6ahFs3iQNsNlq4M_10oUdAV8tXxYgrPza6ml9EEiox9XeGWo5tRzQu_QGPEbPnYLj1gxcQFG1iZIrOQeYU0oxkxpRVGC0]--></g></svg>